<svg width="92" height="102" fill="none" xmlns="http://www.w3.org/2000/svg"><path d="M0 0h1.5v1.5H0zm10 0h1.5v1.5H10zm9.999 0h1.5v1.5h-1.5zM30 0h1.5v1.5H30zm10 0h1.5v1.5H40zm10 0h1.5v1.5H50zm10 0h1.5v1.5H60zm10.001 0h1.5v1.5h-1.5zM80 0h1.5v1.5H80zm10 0h1.5v1.5H90zM0 10h1.5v1.5H0zm10 0h1.5v1.5H10zm9.999 0h1.5v1.5h-1.5zM30 10h1.5v1.5H30zm10 0h1.5v1.5H40zm10 0h1.5v1.5H50zm10 0h1.5v1.5H60zm10.001 0h1.5v1.5h-1.5zM80 10h1.5v1.5H80zm10 0h1.5v1.5H90zM0 20h1.5v1.5H0zm10 0h1.5v1.5H10zm9.999 0h1.5v1.5h-1.5zM30 20h1.5v1.5H30zm10 0h1.5v1.5H40zm10 0h1.5v1.5H50zm10 0h1.5v1.5H60zm10.001 0h1.5v1.5h-1.5zM80 20h1.5v1.5H80zm10 0h1.5v1.5H90zM0 30h1.5v1.5H0zm10 0h1.5v1.5H10zm9.999 0h1.5v1.5h-1.5zM30 30h1.5v1.5H30zm10 0h1.5v1.5H40zm10 0h1.5v1.5H50zm10 0h1.5v1.5H60zm10.001 0h1.5v1.5h-1.5zM80 30h1.5v1.5H80zm10 0h1.5v1.5H90zM0 40h1.5v1.5H0zm10 0h1.5v1.5H10zm9.999 0h1.5v1.5h-1.5zM30 40h1.5v1.5H30zm10 0h1.5v1.5H40zm10 0h1.5v1.5H50zm10 0h1.5v1.5H60zm10.001 0h1.5v1.5h-1.5zM80 40h1.5v1.5H80zm10 0h1.5v1.5H90zM0 50h1.5v1.5H0zm10 0h1.5v1.5H10zm9.999 0h1.5v1.5h-1.5zM30 50h1.5v1.5H30zm10 0h1.5v1.5H40zm10 0h1.5v1.5H50zm10 0h1.5v1.5H60zm10.001 0h1.5v1.5h-1.5zM80 50h1.5v1.5H80zm10 0h1.5v1.5H90zM0 60h1.5v1.5H0zm10 0h1.5v1.5H10zm9.999 0h1.5v1.5h-1.5zM30 60h1.5v1.5H30zm10 0h1.5v1.5H40zm10 0h1.5v1.5H50zm10 0h1.5v1.5H60zm10.001 0h1.5v1.5h-1.5zM80 60h1.5v1.5H80zm10 0h1.5v1.5H90zM0 70h1.5v1.5H0zm10 0h1.5v1.5H10zm9.999 0h1.5v1.5h-1.5zM30 70h1.5v1.5H30zm10 0h1.5v1.5H40zm10 0h1.5v1.5H50zm10 0h1.5v1.5H60zm10.001 0h1.5v1.5h-1.5zM80 70h1.5v1.5H80zm10 0h1.5v1.5H90zM0 80h1.5v1.5H0zm10 0h1.5v1.5H10zm9.999 0h1.5v1.5h-1.5zM30 80h1.5v1.5H30zm10 0h1.5v1.5H40zm10 0h1.5v1.5H50zm10 0h1.5v1.5H60zm10.001 0h1.5v1.5h-1.5zM80 80h1.5v1.5H80zm10 0h1.5v1.5H90zM0 90h1.5v1.5H0zm10 0h1.5v1.5H10zm9.999 0h1.5v1.5h-1.5zM30 90h1.5v1.5H30zm10 0h1.5v1.5H40zm10 0h1.5v1.5H50zm10 0h1.5v1.5H60zm10.001 0h1.5v1.5h-1.5zM80 90h1.5v1.5H80zm10 0h1.5v1.5H90zM0 100h1.5v1.5H0zm10 0h1.5v1.5H10zm9.999 0h1.5v1.5h-1.5zM30 100h1.5v1.5H30zm10 0h1.5v1.5H40zm10 0h1.5v1.5H50zm10 0h1.5v1.5H60zm10.001 0h1.5v1.5h-1.5zM80 100h1.5v1.5H80zm10 0h1.5v1.5H90z" fill="#21383E"/></svg>